<?xml version="1.0" encoding="UTF-8"?>
<svg id="Layer_1" data-name="Layer 1" xmlns="http://www.w3.org/2000/svg" viewBox="0 0 588.86 114.94">
  <rect y="5.82" width="14.4" height="42.17"/>
  <rect y="55.88" width="14.4" height="33.7"/>
  <path d="M38.78,47.98v-9.82c0-.62.22-1.14.67-1.57.44-.43.99-.64,1.63-.64h38.6v-13.84h-39.08c-2.9,0-5.59.72-8.05,2.15-2.46,1.44-4.44,3.34-5.93,5.7-1.49,2.37-2.24,4.94-2.24,7.74v10.29h14.4Z"/>
  <polygon points="24.38 55.88 24.38 89.58 38.78 99.71 38.78 55.88 24.38 55.88"/>
  <path d="M104.05,47.98v-9.82c0-.62.22-1.14.67-1.57.44-.43.99-.64,1.63-.64h37.87c.65,0,1.19.21,1.63.64.44.43.67.95.67,1.57v9.82h14.4v-10.29c0-2.87-.73-5.49-2.18-7.85-1.45-2.37-3.41-4.25-5.87-5.64-2.46-1.4-5.18-2.09-8.17-2.09h-38.84c-2.9,0-5.59.72-8.05,2.15-2.46,1.44-4.44,3.34-5.93,5.7-1.49,2.37-2.24,4.94-2.24,7.74v10.29h14.4Z"/>
  <path d="M146.52,55.88v17.64c0,.62-.22,1.15-.67,1.57-.44.43-.99.64-1.63.64h-37.87c-.65,0-1.19-.21-1.63-.64-.44-.43-.67-.95-.67-1.57v-17.64h-14.4v18.11c0,2.79.75,5.37,2.24,7.74,1.49,2.37,3.47,4.27,5.93,5.7,2.46,1.44,5.14,2.15,8.05,2.15h38.84c2.98,0,5.71-.72,8.17-2.15,2.46-1.43,4.42-3.33,5.87-5.7,1.45-2.36,2.18-4.94,2.18-7.74v-18.11h-14.4Z"/>
  <path d="M185.48,47.98v-9.82c0-.62.22-1.14.67-1.57.44-.43.99-.64,1.63-.64h37.99c.56,0,1.07.21,1.51.64.44.43.67.95.67,1.57v9.82h14.4v-10.29c0-2.79-.73-5.37-2.18-7.74-1.45-2.36-3.41-4.26-5.87-5.7-2.46-1.43-5.14-2.15-8.04-2.15h-55.17v25.88h14.4Z"/>
  <rect x="171.08" y="55.88" width="14.4" height="33.7"/>
  <rect x="227.94" y="55.88" width="14.4" height="33.7"/>
  <path d="M340.86,47.98c-.72-1.33-1.57-2.66-2.58-4.01.4-.85.71-1.76.91-2.73.2-.97.3-2,.3-3.08v-16.64c0-2.87-.75-5.51-2.24-7.91-1.49-2.4-3.47-4.3-5.93-5.7-2.46-1.4-5.18-2.09-8.17-2.09h-67.27v42.17h84.97ZM270.41,21.99c0-.54.22-1.03.67-1.45.44-.43.95-.64,1.51-.64h49.97c.64,0,1.17.21,1.57.64.4.43.61.91.61,1.45v15.82c0,.54-.2,1.03-.61,1.45-.4.43-.93.64-1.57.64h-49.97c-.57,0-1.07-.21-1.51-.64-.44-.43-.67-.91-.67-1.45v-15.82Z"/>
  <path d="M328.35,55.88c0,.06.02.13.02.19v17.33c0,.54-.22,1.03-.67,1.45-.44.43-.95.64-1.51.64h-53.6c-.57,0-1.07-.21-1.51-.64-.44-.43-.67-.91-.67-1.45v-17.33c0-.07.01-.13.02-.19h-14.54v33.7h70.78c2.98,0,5.71-.7,8.17-2.09,2.46-1.4,4.44-3.3,5.93-5.7,1.49-2.4,2.24-5.04,2.24-7.91v-17.99h-14.66Z"/>
  <path d="M369.99,47.98v-9.82c0-.62.22-1.14.67-1.57.44-.43.99-.64,1.63-.64h37.87c.64,0,1.19.21,1.63.64.44.43.67.95.67,1.57v9.82h14.4v-10.29c0-2.87-.73-5.49-2.18-7.85-1.45-2.37-3.41-4.25-5.87-5.64-2.46-1.4-5.18-2.09-8.17-2.09h-38.84c-2.9,0-5.59.72-8.05,2.15-2.46,1.44-4.44,3.34-5.93,5.7-1.49,2.37-2.24,4.94-2.24,7.74v10.29h14.4Z"/>
  <path d="M412.45,55.88v17.64c0,.62-.22,1.15-.67,1.57-.44.43-.99.64-1.63.64h-37.87c-.65,0-1.19-.21-1.63-.64-.44-.43-.67-.95-.67-1.57v-17.64h-14.4v18.11c0,2.79.74,5.37,2.24,7.74,1.49,2.37,3.47,4.27,5.93,5.7,2.46,1.44,5.14,2.15,8.05,2.15h38.84c2.98,0,5.71-.72,8.17-2.15,2.46-1.43,4.42-3.33,5.87-5.7,1.45-2.36,2.18-4.94,2.18-7.74v-18.11h-14.4Z"/>
  <path d="M450.44,47.98v-9.82c0-.62.22-1.14.67-1.57.44-.43.99-.64,1.63-.64h37.87c.64,0,1.19.21,1.63.64.44.43.67.95.67,1.57v9.82h14.4V0h-14.4v22.1h-40.77c-2.98,0-5.71.72-8.17,2.15-2.46,1.44-4.42,3.34-5.87,5.7-1.45,2.37-2.18,4.94-2.18,7.74v10.29h14.52Z"/>
  <path d="M492.91,55.88v17.64c0,.62-.22,1.15-.67,1.57-.44.43-.99.64-1.63.64h-37.87c-.65,0-1.19-.21-1.63-.64-.44-.43-.67-.95-.67-1.57v-17.64h-14.52v18.11c0,2.87.73,5.49,2.18,7.85,1.45,2.37,3.41,4.25,5.87,5.64,2.46,1.4,5.18,2.09,8.17,2.09h55.17v-33.7h-14.4Z"/>
  <rect x="517.59" y="22.34" width="14.4" height="25.65"/>
  <rect x="574.46" y="22.34" width="14.4" height="25.65"/>
  <path d="M574.46,55.88v17.64c0,.62-.22,1.15-.67,1.57-.44.43-.95.64-1.51.64h-37.99c-.65,0-1.19-.21-1.63-.64-.44-.43-.67-.95-.67-1.57v-17.64h-14.4v18.11c0,2.87.74,5.49,2.24,7.85,1.49,2.37,3.45,4.25,5.87,5.64,2.42,1.4,5.12,2.09,8.11,2.09h40.65v9.31c0,.54-.22,1.03-.67,1.45-.44.43-.95.64-1.51.64H255.89l14.52,13.96h302.35c2.98,0,5.71-.7,8.17-2.09,2.46-1.4,4.39-3.28,5.81-5.64,1.41-2.37,2.12-4.98,2.12-7.85v-43.47h-14.4Z"/>
</svg>