<?xml version="1.0" encoding="UTF-8"?>
<svg id="Layer_2" data-name="Layer 2" xmlns="http://www.w3.org/2000/svg" xmlns:xlink="http://www.w3.org/1999/xlink" viewBox="0 0 588.86 268.74">
  <defs>
    <style>
      .cls-1 {
        fill: url(#linear-gradient-8);
      }

      .cls-2 {
        fill: url(#linear-gradient-7);
      }

      .cls-3 {
        fill: url(#linear-gradient-5);
      }

      .cls-4 {
        fill: url(#linear-gradient-6);
      }

      .cls-5 {
        fill: url(#linear-gradient-9);
      }

      .cls-6 {
        fill: url(#linear-gradient-4);
      }

      .cls-7 {
        fill: url(#linear-gradient-3);
      }

      .cls-8 {
        fill: url(#linear-gradient-2);
      }

      .cls-9 {
        fill: url(#linear-gradient);
      }

      .cls-10 {
        fill: url(#linear-gradient-10);
      }

      .cls-11 {
        fill: url(#linear-gradient-11);
      }

      .cls-12 {
        fill: url(#linear-gradient-12);
      }

      .cls-13 {
        fill: url(#linear-gradient-13);
      }

      .cls-14 {
        fill: url(#linear-gradient-14);
      }

      .cls-15 {
        fill: url(#linear-gradient-15);
      }

      .cls-16 {
        fill: url(#linear-gradient-16);
      }

      .cls-17 {
        fill: url(#linear-gradient-17);
      }

      .cls-18 {
        fill: url(#linear-gradient-18);
      }
    </style>
    <linearGradient id="linear-gradient" x1="7.2" y1="161.77" x2="7.2" y2="203.94" gradientUnits="userSpaceOnUse">
      <stop offset=".13" stop-color="#fff" />
      <stop offset=".83" stop-color="#efefef" />
      <stop offset=".97" stop-color="#c4c6c7" />
    </linearGradient>
    <linearGradient id="linear-gradient-2" x1="52.02" y1="178.06" x2="52.02" xlink:href="#linear-gradient" />
    <linearGradient id="linear-gradient-3" x1="125.28" y1="178.06" x2="125.28" xlink:href="#linear-gradient" />
    <linearGradient id="linear-gradient-4" x1="206.71" y1="178.06" x2="206.71" xlink:href="#linear-gradient" />
    <linearGradient id="linear-gradient-5" x1="298.38" x2="298.38" xlink:href="#linear-gradient" />
    <linearGradient id="linear-gradient-6" x1="391.22" y1="178.06" x2="391.22" xlink:href="#linear-gradient" />
    <linearGradient id="linear-gradient-7" x1="471.62" y1="155.95" x2="471.62" xlink:href="#linear-gradient" />
    <linearGradient id="linear-gradient-8" x1="524.79" y1="178.29" x2="524.79" xlink:href="#linear-gradient" />
    <linearGradient id="linear-gradient-9" x1="581.66" y1="178.29" x2="581.66" xlink:href="#linear-gradient" />
    <linearGradient id="linear-gradient-10" x1="7.2" y1="209.68" x2="7.2" y2="243.38" gradientUnits="userSpaceOnUse">
      <stop offset=".21" stop-color="#9d9d9d" />
      <stop offset=".43" stop-color="#999" />
      <stop offset="1" stop-color="#4c4c4c" />
    </linearGradient>
    <linearGradient id="linear-gradient-11" x1="31.58" x2="31.58" y2="251.06" xlink:href="#linear-gradient-10" />
    <linearGradient id="linear-gradient-12" x1="125.28" x2="125.28" xlink:href="#linear-gradient-10" />
    <linearGradient id="linear-gradient-13" x1="178.28" x2="178.28" xlink:href="#linear-gradient-10" />
    <linearGradient id="linear-gradient-14" x1="235.14" x2="235.14" xlink:href="#linear-gradient-10" />
    <linearGradient id="linear-gradient-15" x1="299.45" x2="299.45" xlink:href="#linear-gradient-10" />
    <linearGradient id="linear-gradient-16" x1="391.22" x2="391.22" xlink:href="#linear-gradient-10" />
    <linearGradient id="linear-gradient-17" x1="471.62" x2="471.62" xlink:href="#linear-gradient-10" />
    <linearGradient id="linear-gradient-18" x1="424.34" x2="424.34" y2="268.74" xlink:href="#linear-gradient-10" />
  </defs>
  <g id="Layer_1" data-name="Layer 1">
    <rect class="cls-9" y="161.77" width="14.4" height="42.17" />
    <path class="cls-8" d="M38.78,203.94v-9.82c0-.62.22-1.14.67-1.57.44-.43.99-.64,1.63-.64h38.6v-13.84h-39.08c-2.9,0-5.59.72-8.05,2.15-2.46,1.44-4.44,3.34-5.93,5.7-1.49,2.37-2.24,4.94-2.24,7.74v10.29h14.4Z" />
    <path class="cls-7" d="M104.05,203.94v-9.82c0-.62.22-1.14.67-1.57.44-.43.99-.64,1.63-.64h37.87c.65,0,1.19.21,1.63.64.44.43.67.95.67,1.57v9.82h14.4v-10.29c0-2.87-.73-5.49-2.18-7.85-1.45-2.37-3.41-4.25-5.87-5.64-2.46-1.4-5.18-2.09-8.17-2.09h-38.84c-2.9,0-5.59.72-8.05,2.15-2.46,1.44-4.44,3.34-5.93,5.7-1.49,2.37-2.24,4.94-2.24,7.74v10.29h14.4Z" />
    <path class="cls-6" d="M185.48,203.94v-9.82c0-.62.22-1.14.67-1.57.44-.43.99-.64,1.63-.64h37.99c.56,0,1.07.21,1.51.64.44.43.67.95.67,1.57v9.82h14.4v-10.29c0-2.79-.73-5.37-2.18-7.74-1.45-2.36-3.41-4.26-5.87-5.7-2.46-1.43-5.14-2.15-8.04-2.15h-55.17v25.88h14.4Z" />
    <path class="cls-3" d="M340.86,203.94c-.72-1.33-1.57-2.66-2.58-4.01.4-.85.71-1.76.91-2.73.2-.97.3-2,.3-3.08v-16.64c0-2.87-.75-5.51-2.24-7.91-1.49-2.4-3.47-4.3-5.93-5.7-2.46-1.4-5.18-2.09-8.17-2.09h-67.27v42.17h84.97ZM270.41,177.94c0-.54.22-1.03.67-1.45.44-.43.95-.64,1.51-.64h49.97c.64,0,1.17.21,1.57.64.4.43.61.91.61,1.45v15.82c0,.54-.2,1.03-.61,1.45-.4.43-.93.64-1.57.64h-49.97c-.57,0-1.07-.21-1.51-.64-.44-.43-.67-.91-.67-1.45v-15.82Z" />
    <path class="cls-4" d="M369.99,203.94v-9.82c0-.62.22-1.14.67-1.57.44-.43.99-.64,1.63-.64h37.87c.64,0,1.19.21,1.63.64.44.43.67.95.67,1.57v9.82h14.4v-10.29c0-2.87-.73-5.49-2.18-7.85-1.45-2.37-3.41-4.25-5.87-5.64-2.46-1.4-5.18-2.09-8.17-2.09h-38.84c-2.9,0-5.59.72-8.05,2.15-2.46,1.44-4.44,3.34-5.93,5.7-1.49,2.37-2.24,4.94-2.24,7.74v10.29h14.4Z" />
    <path class="cls-2" d="M450.44,203.94v-9.82c0-.62.22-1.14.67-1.57.44-.43.99-.64,1.63-.64h37.87c.64,0,1.19.21,1.63.64.44.43.67.95.67,1.57v9.82h14.4v-47.98h-14.4v22.1h-40.77c-2.98,0-5.71.72-8.17,2.15-2.46,1.44-4.42,3.34-5.87,5.7-1.45,2.37-2.18,4.94-2.18,7.74v10.29h14.52Z" />
    <rect class="cls-1" x="517.59" y="178.29" width="14.4" height="25.65" />
    <rect class="cls-5" x="574.46" y="178.29" width="14.4" height="25.65" />
    <g>
      <rect class="cls-10" y="209.68" width="14.4" height="33.7" rx="2.66" ry="2.66" />
      <path class="cls-11" d="M24.38,212.34v29.66c0,.86.42,1.68,1.13,2.17l9.08,6.39c1.76,1.24,4.19-.02,4.19-2.17v-36.05c0-1.47-1.19-2.66-2.66-2.66h-9.08c-1.47,0-2.66,1.19-2.66,2.66Z" />
      <path class="cls-12" d="M146.52,212.34v14.78c0,.72-.25,1.44-.8,1.9-.42.35-.92.52-1.5.52h-37.87c-.58,0-1.08-.17-1.5-.52l-.8-1.91v-14.77c0-1.47-1.19-2.66-2.66-2.66h-9.08c-1.47,0-2.66,1.19-2.66,2.66v15.06c0,2.94.76,5.85,2.36,8.32,1.48,2.28,3.41,4.11,5.81,5.51,2.46,1.44,5.14,2.15,8.05,2.15h38.84c2.98,0,5.71-.72,8.17-2.15,2.46-1.43,4.42-3.33,5.87-5.7,1.45-2.36,2.18-4.94,2.18-7.74v-15.45c0-1.47-1.19-2.66-2.66-2.66h-9.08c-1.47,0-2.66,1.19-2.66,2.66Z" />
      <rect class="cls-13" x="171.08" y="209.68" width="14.4" height="33.7" rx="2.66" ry="2.66" />
      <rect class="cls-14" x="227.94" y="209.68" width="14.4" height="33.7" rx="2.66" ry="2.66" />
      <path class="cls-15" d="M328.35,209.68c0,.06.02.13.02.19v17.33c0,.54-.22,1.03-.67,1.45-.44.43-.95.64-1.51.64h-53.6c-.57,0-1.07-.21-1.51-.64-.44-.43-.67-.91-.67-1.45v-17.33c0-.07.01-.13.02-.19h-11.88c-1.47,0-2.66,1.19-2.66,2.66v28.38c0,1.47,1.19,2.66,2.66,2.66h68.12c2.98,0,5.71-.7,8.17-2.09,2.46-1.4,4.44-3.3,5.93-5.7,1.49-2.4,2.24-5.04,2.24-7.91v-15.34c0-1.47-1.19-2.66-2.66-2.66h-12Z" />
      <path class="cls-16" d="M412.45,212.34v14.78c0,.72-.25,1.44-.8,1.9-.42.35-.92.52-1.5.52h-37.87c-.58,0-1.08-.17-1.5-.52-.28-.66-.52-1.25-.8-1.91v-14.77c0-1.47-1.19-2.66-2.66-2.66h-9.08c-1.47,0-2.66,1.19-2.66,2.66v15.06c0,2.94.76,5.85,2.36,8.32,1.48,2.28,3.41,4.12,5.81,5.51,2.46,1.44,5.14,2.15,8.05,2.15h38.84c2.98,0,5.71-.72,8.17-2.15,2.46-1.43,4.42-3.33,5.87-5.7,1.45-2.36,2.18-4.94,2.18-7.74v-15.45c0-1.47-1.19-2.66-2.66-2.66h-9.08c-1.47,0-2.66,1.19-2.66,2.66Z" />
      <path class="cls-17" d="M492.91,212.34v14.78c0,.72-.25,1.44-.8,1.9-.42.35-.92.52-1.5.52h-37.87c-.58,0-1.08-.17-1.5-.52l-.8-1.91v-14.77c0-1.47-1.19-2.66-2.66-2.66h-9.2c-1.47,0-2.66,1.19-2.66,2.66v15.45c0,2.87.73,5.49,2.18,7.85,1.45,2.37,3.41,4.25,5.87,5.64,2.46,1.4,5.18,2.09,8.17,2.09h52.52c1.47,0,2.66-1.19,2.66-2.66v-28.38c0-1.47-1.19-2.66-2.66-2.66h-9.08c-1.47,0-2.66,1.19-2.66,2.66Z" />
      <path class="cls-18" d="M574.46,212.34v14.74c0,.87-.39,1.75-1.14,2.18-.32.19-.67.28-1.04.28h-37.99c-.58,0-1.08-.17-1.5-.52l-.8-1.91v-14.77c0-1.47-1.19-2.66-2.66-2.66h-9.08c-1.47,0-2.66,1.19-2.66,2.66v15.45c0,2.87.74,5.49,2.24,7.85,1.49,2.37,3.45,4.25,5.87,5.64,2.42,1.4,5.12,2.09,8.11,2.09h38c1.47,0,2.66,1.19,2.66,2.66v6.65c0,.54-.22,1.03-.67,1.45-.44.43-.95.64-1.51.64h-309.79c-2.39,0-3.57,2.91-1.84,4.57l8.99,8.65c.5.48,1.16.74,1.84.74h301.28c2.98,0,5.71-.7,8.17-2.09,2.46-1.4,4.39-3.28,5.81-5.64,1.41-2.37,2.12-4.98,2.12-7.85v-40.81c0-1.47-1.19-2.66-2.66-2.66h-9.08c-1.47,0-2.66,1.19-2.66,2.66Z" />
    </g>
  </g>
</svg>